<?xml version="1.0" encoding="UTF-8"?>
<svg id="Layer_1" xmlns="http://www.w3.org/2000/svg" version="1.1" viewBox="0 0 110 135">
  <!-- Generator: Adobe Illustrator 29.0.1, SVG Export Plug-In . SVG Version: 2.1.0 Build 192)  -->
  <path d="M94,93.4h-4.2v-5.7c0-.5-.4-1-1-1h-2.9c.3-.6.5-1.2.5-1.9v-19.2c.3.1.7.2,1.1.2,1.7,0,3-1.4,3-3v-13.3c0-3.6-2.8-6.5-6.4-6.9,1-1.1,1.7-2.6,1.7-4.2,0-3.4-2.7-6.1-6.1-6.1s-6.1,2.7-6.1,6.1.6,3.1,1.7,4.2c-3.6.4-6.4,3.3-6.4,6.9v13.3c0,1.7,1.4,3,3,3s.7-.1,1.1-.2v19.2c0,.7.2,1.3.5,1.9h-2.9c-.5,0-1,.4-1,1v5.7h-3.6s0-18,0-18c0-.5-.4-1-1-1h-3.8c.3-.6.5-1.2.5-1.9v-19.2c.3.1.7.2,1.1.2,1.7,0,3-1.4,3-3v-13.3c0-3.6-2.8-6.5-6.4-6.9,1-1.1,1.7-2.6,1.7-4.2,0-3.4-2.7-6.1-6.1-6.1s-6.1,2.7-6.1,6.1.6,3.1,1.7,4.2c-3.6.4-6.4,3.3-6.4,6.9v13.3c0,1.7,1.4,3,3,3s.7-.1,1.1-.2v19.2c0,.7.2,1.3.5,1.9h-3.8c-.5,0-1,.4-1,1v18h-3.5v-10.6c0-.5-.4-1-1-1h-3c.3-.6.5-1.2.5-1.9v-19.1c.3.1.7.2,1.1.2,1.7,0,3-1.4,3-3v-13.3c0-3.6-2.8-6.5-6.4-6.9,1-1.1,1.7-2.6,1.7-4.2,0-3.4-2.7-6.1-6.1-6.1s-6.1,2.7-6.1,6.1.6,3.1,1.7,4.2c-3.6.4-6.4,3.3-6.4,6.9v13.3c0,1.7,1.4,3,3,3s.8-.1,1.1-.2v19.2c0,.7.2,1.3.5,1.9h-3c-.5,0-1,.4-1,1v10.6h-4.1c-.5,0-1,.4-1,1v4.5c0,.5.4,1,1,1h78c.5,0,1-.4,1-1v-4.6c0-.6-.4-1-1-1h0ZM79.7,34.3c2.3,0,4.2,1.9,4.2,4.2s-1.9,4.2-4.2,4.2-4.2-1.9-4.2-4.2,1.9-4.2,4.2-4.2ZM79.7,48.3l-1.9-3.7h3.8l-1.9,3.7ZM80.7,52.4c0,.6-.4,1-1,1s-1-.4-1-1,.4-1,1-1,1,.5,1,1ZM73,50.4v12.4c0,.6-.5,1.1-1.1,1.1s-1.1-.5-1.1-1.1v-12.4s0-.9,0-.9c0-2.6,2.1-4.7,4.8-4.9l2.7,5.2c-.9.5-1.5,1.5-1.5,2.6,0,1.6,1.3,3,3,3s3-1.3,3-3-.6-2.1-1.5-2.6l2.7-5.2c2.7.2,4.8,2.3,4.8,4.9v13.3c0,.6-.5,1.1-1.1,1.1s-1.1-.5-1.1-1.1v-12.4c0-.5-.4-1-1-1s-1,.4-1,1v34.4c0,1-.8,1.9-1.9,1.9s-1.9-.9-1.9-1.9v-20c0-.5-.4-1-1-1s-1,.4-1,1v20.1c0,1-.8,1.9-1.9,1.9s-1.9-.9-1.9-1.9v-34.5c0-.5-.4-1-1-1s-1,.5-1,1h0ZM71.5,88.7h16.3v4.7h-16.3v-4.7ZM55,22c2.3,0,4.2,1.9,4.2,4.2s-1.9,4.2-4.2,4.2-4.2-1.9-4.2-4.2,1.9-4.2,4.2-4.2ZM55,36l-1.9-3.7h3.8l-1.9,3.7ZM56,40.1c0,.6-.4,1-1,1s-1-.4-1-1,.4-1,1-1,1,.4,1,1ZM48.3,38.1v12.4c0,.6-.5,1.1-1.1,1.1s-1.1-.5-1.1-1.1v-12.4s0-.9,0-.9c0-2.6,2.1-4.7,4.8-4.9l2.7,5.2c-.9.5-1.6,1.4-1.6,2.6s1.3,3,3,3,3-1.3,3-3-.6-2.1-1.5-2.6l2.7-5.2c2.7.2,4.8,2.3,4.8,4.9v13.3c0,.6-.5,1.1-1.1,1.1s-1.1-.5-1.1-1.1v-12.4c0-.5-.4-1-1-1s-1,.4-1,1v34.4c0,1-.8,1.9-1.9,1.9s-1.9-.9-1.9-1.9v-20.1c0-.5-.4-1-1-1s-1,.4-1,1v20.1c0,1-.8,1.9-1.9,1.9s-1.9-.9-1.9-1.9v-34.4c0-.5-.4-1-1-1s-.9.4-.9,1h0ZM45.9,76.3h18.1v17.1h-18.1v-17.1ZM30.3,29.4c2.3,0,4.2,1.9,4.2,4.2s-1.9,4.2-4.2,4.2-4.2-1.9-4.2-4.2c0-2.3,1.9-4.2,4.2-4.2ZM30.3,43.4l-1.9-3.7h3.8l-1.9,3.7ZM31.3,47.5c0,.6-.4,1-1,1s-1-.4-1-1,.4-1,1-1,1,.5,1,1ZM23.6,45.6v12.4c0,.6-.5,1.1-1.1,1.1s-1.1-.5-1.1-1.1v-13.3c0-2.6,2.1-4.7,4.8-4.9l2.7,5.2c-.9.5-1.5,1.5-1.5,2.6,0,1.6,1.3,3,3,3s3-1.3,3-3-.6-2.1-1.5-2.6l2.7-5.2c2.7.2,4.8,2.3,4.8,4.9v13.3c0,.6-.5,1.1-1.1,1.1s-1.1-.5-1.1-1.1v-12.4c0-.5-.4-1-1-1s-1,.4-1,1v34.4c0,1-.9,1.9-1.9,1.9-1,0-2-.9-2-1.9v-20.1c0-.5-.4-1-1-1s-1,.4-1,1v20.1c0,1-.9,1.9-1.9,1.9s-1.9-.9-1.9-1.9v-34.4c0-.5-.4-1-1-1s-.9.4-.9,1h0ZM22.1,83.8h16.4v9.6h-16.4s0-9.6,0-9.6ZM93,98H17v-2.7h76v2.7Z"/>
</svg>